<svg width="20" height="20" viewBox="0 0 20 20" fill="none" xmlns="http://www.w3.org/2000/svg">
<g clip-path="url(#clip0_15_293)">
<path d="M2.49984 3.2H16.6665C16.7382 3.2 16.7998 3.2616 16.7998 3.33333V8.33333C16.7998 8.40507 16.7382 8.46667 16.6665 8.46667H2.49984C2.4281 8.46667 2.3665 8.40507 2.3665 8.33333V3.33333C2.3665 3.2616 2.4281 3.2 2.49984 3.2ZM2.49984 11.5333H16.6665C16.7382 11.5333 16.7998 11.5949 16.7998 11.6667V16.6667C16.7998 16.7384 16.7382 16.8 16.6665 16.8H2.49984C2.4281 16.8 2.3665 16.7384 2.3665 16.6667V11.6667C2.3665 11.5949 2.4281 11.5333 2.49984 11.5333Z" stroke="currentColor" stroke-width="1.4"/>
</g>
<defs>
<clipPath id="clip0_15_293">
<rect width="20" height="20" fill="white"/>
</clipPath>
</defs>
</svg>
